<svg xmlns="http://www.w3.org/2000/svg" width="819.255" height="206.457"><defs><clipPath id="a"><path d="M0 154.843h614.441V0H0z"/></clipPath></defs><path d="M127.768.007H90.242l-3.746 3.777-17.712 33.754-5.57 3.758H0v51.548h34.753l3.095 3.744L0 168.911v37.537h37.536l3.746-3.777 17.712-33.755 5.57-3.757h63.216v-51.547H93.026l-3.092-3.77 37.846-72.3V.008z" fill="#05cc47"/><path d="M202.157 113.617l-48.579 92.832h28.827l7.05-13.51h32.548l3.222 13.51h28.824l-22.218-92.832zm9.624 36.66l4.921 20.355h-15.584z" fill="#ffffff"/><g clip-path="url(#a)" transform="matrix(1.33333 0 0 -1.33333 0 206.457)"><path d="M224.537 37.081H215.3v14.077h9.237c5.628 0 7.766-2.816 7.766-7.095 0-4.168-2.138-6.982-7.766-6.982m28.941 7.326c0 15.988-10.813 25.224-26.015 25.224h-32.99V0H215.3v20.308h5.068l4.136.01L234.588.002h21.621l-12.858 24.568c6.307 4.017 10.127 10.826 10.127 19.839M256.56 69.63V51.172h19.68V0h11.857l8.954 17.128v34.044H314.9l9.651 18.458zM373.24 85.217h20.808v69.621H373.24zM196.252 154.803l-9.35-17.85h5.742c10.25 0 16.739-6.552 16.739-16.917 0-10.244-6.489-16.797-16.739-16.797h-6.489v32.288L166.026 97.1V85.23h28.005c22.567 0 35.832 13.606 35.832 34.808 0 20.501-12.4 33.895-33.611 34.766M235.366 85.217h53.144v18.455h-32.337v7.524h29.73v17.665h-29.73v7.521h32.337v18.456h-53.144zM325.506 112.707l-10.086 42.13h-21.598l16.672-69.617h22.218l36.467 69.618h-21.622zM546.45 154.843v-18.458h19.68V85.213h11.858l8.953 17.128v34.044h17.85l9.65 18.458zM433.752 112.077l7.985 15.25 3.689-15.25zm.81 42.76L398.119 85.22h21.584l5.306 10.143h24.388l2.421-10.143 21.59-.002-16.663 69.62zM521.187 121.859l-23.305 32.979H477.36V85.217h20.802v35.358l25.799-35.358h18.028v69.62h-20.803z" fill="#ffffff"/></g></svg>