<svg xmlns="http://www.w3.org/2000/svg" viewBox="0 0 175 103"><g id="Layer_2"><path fill="#ffffff" d="M85.2 78.3v22s-.8 2.7-7.3 2.7H59.3s-6.3-.8-6.3-7.3 3.3-18 32.2-17.4z"/><path fill="#ffffff" d="M175 58.3c-7.3 43.3-45.5 44.8-45.5 44.8h-20.8V56.7s2-29.5-35-29.5c0 0-24.3.5-37 4.7l-2 18.5s12.3-4.8 29.2-4.8c16.8 0 21.3 7 21.3 11.5v8.7s-53.8-2.3-53.8 29.8c0 0-.7 6.2.8 7.5H0V46.3C0 2.5 45 0 45 0h75.8L117 17.8l19.3 4.8.3 19.2h17.3l-1.5 17.8 22.6-1.3z"/><path class="st1" fill="#ffffff" d="M363.2 349h27.2l-2.7 2.5s-23-1.1-24.5-2.5zM439.7 349l-29.9 5.9-1-5.9z"/></g></svg>